<svg width="128" height="31" viewBox="0 0 128 31" fill="none" xmlns="http://www.w3.org/2000/svg">
<g id="logo_easyed 1">
<g id="Group">
<g id="Group_2">
<g id="Group_3">
<path id="Vector" d="M20.417 22.5405H11.7206C11.2018 22.5405 10.7815 22.4663 10.4356 22.3671C10.1147 22.2433 9.89229 22.0699 9.69437 21.8218C9.49694 21.5497 9.3485 21.1778 9.27452 20.7071C9.25002 20.5833 9.25002 20.4099 9.22504 20.2861C9.22504 20.2861 9.25002 18.5024 9.27452 18.5024H20.3185C20.516 18.5024 21.0103 18.4031 21.0103 17.6353V15.6781C21.0103 14.9098 20.516 14.8356 20.3185 14.8356L7.56964 14.8602C6.85339 14.9098 6.23562 15.2817 5.88974 15.9007C5.76628 16.0991 5.66732 16.2971 5.61784 16.5201L5.56836 19.6421V19.7659C5.59334 20.9302 5.7168 21.921 5.88974 22.7385C6.11216 23.7299 6.48253 24.5473 6.95235 25.1668C7.44618 25.8108 8.08845 26.2569 8.87916 26.5291C9.64538 26.8263 10.5591 26.9506 11.6462 26.9506H20.417C20.6394 26.9506 21.1337 26.8759 21.1337 26.108V23.383C21.1337 22.6147 20.6394 22.5405 20.417 22.5405ZM20.442 6.51123H6.23562C6.03818 6.51123 5.56836 6.61046 5.56836 7.40336V9.33548C5.56836 10.1038 6.03818 10.178 6.23562 10.178L20.442 10.2026C20.6394 10.2026 21.1337 10.1038 21.1337 9.33548V7.3783C21.1337 6.61046 20.6394 6.51123 20.442 6.51123Z" fill="black"/>
</g>
</g>
</g>
<g id="Group_4">
<g id="Group_5">
<g id="Group_6">
<path id="Vector_2" d="M36.8469 8.86498C36.7974 8.74119 36.7484 8.59234 36.6989 8.49359C36.3036 7.20502 35.1175 6.28833 33.7585 6.28833C33.1412 6.28833 32.5479 6.46174 32.0541 6.80857C31.9056 6.88324 31.7822 6.98199 31.6832 7.05666C31.3128 7.37843 30.942 7.97335 30.5961 8.86498L23.7031 26.034C23.6291 26.257 23.6041 26.4796 23.6536 26.6284C23.6786 26.7773 23.8021 26.9998 24.1974 26.9998H26.9149C27.2363 26.9998 27.4832 26.8018 27.6067 26.4796L29.0152 22.9371H34.4257C34.6976 22.9371 34.9445 22.8133 35.068 22.5903C35.2164 22.3918 35.2409 22.1196 35.167 21.8716L34.2778 19.6668C34.1538 19.3696 33.8824 19.1711 33.561 19.1711H30.4976L33.66 11.1444C33.6845 11.0948 33.7095 11.0698 33.7095 11.0698H33.808C33.808 11.0698 33.808 11.0698 33.8329 11.1194L39.9602 26.455C40.0837 26.8018 40.3306 26.9998 40.6765 26.9998H43.32C43.7154 26.9998 43.8143 26.7522 43.8638 26.6284C43.9133 26.4796 43.8883 26.257 43.7894 26.034L36.8469 8.86498Z" fill="black"/>
</g>
</g>
</g>
<g id="Group_7">
<g id="Group_8">
<g id="Group_9">
<path id="Vector_3" d="M58.316 14.7859H50.9042C50.5338 14.7859 50.0645 14.6376 50.0645 13.4232V11.5903C50.0645 11.1442 50.1385 10.7974 50.2619 10.5493C50.3609 10.401 50.5088 10.2275 50.9292 10.2275H60.9845C61.182 10.2275 61.6763 10.1534 61.6763 9.38504V7.4033C61.6763 6.63497 61.182 6.56079 60.9845 6.56079H50.3359C48.9774 6.56079 47.9887 7.00685 47.3465 7.92354C46.7042 8.81518 46.3828 10.0045 46.3828 11.4415V13.3244C46.3828 15.0335 46.7287 16.4213 47.3465 17.2884C48.1127 18.3039 49.2488 18.4527 50.2869 18.4527H57.6987C58.0691 18.4527 58.5634 18.6011 58.5634 19.8155V21.946C58.5634 22.3916 58.4894 22.7384 58.341 22.9865C58.242 23.1349 58.0941 23.3083 57.6737 23.3083H47.124C46.9021 23.3083 46.4078 23.383 46.4078 24.1508V26.1326C46.4078 26.9009 46.9021 26.9751 47.124 26.9751H58.267C59.6255 26.9751 60.6387 26.5044 61.2809 25.5878C61.8987 24.6956 62.2201 23.5313 62.2201 22.0944V19.9142C62.2201 18.3039 61.8987 17.0403 61.2564 16.1487C60.5892 15.2566 59.601 14.7859 58.316 14.7859Z" fill="black"/>
</g>
</g>
</g>
<g id="Group_10">
<g id="Group_11">
<g id="Group_12">
<path id="Vector_4" d="M82.9732 6.56079H80.2306C80.0087 6.56079 79.7118 6.63497 79.5144 7.00685L74.0789 16.9416L68.6928 7.03142C68.4954 6.63497 68.199 6.56079 67.9766 6.56079H65.1601C64.9377 6.56079 64.7647 6.68459 64.7152 6.90762C64.6658 7.08103 64.6902 7.2795 64.7892 7.45292L72.201 20.7071V26.1326C72.201 26.9009 72.6954 26.9751 72.8928 26.9751H75.166C75.3639 26.9751 75.8577 26.9009 75.8577 26.1326V20.7071L83.344 7.45292C83.4425 7.2795 83.4675 7.08103 83.418 6.88306C83.344 6.68459 83.1711 6.56079 82.9732 6.56079Z" fill="black"/>
</g>
</g>
</g>
<g id="Group_13">
<g id="Group_14">
<g id="Group_15">
<path id="Vector_5" d="M100.763 22.5405H92.0663C91.5475 22.5405 91.1272 22.4663 90.7813 22.3671C90.4604 22.2433 90.238 22.0699 90.0401 21.8218C89.8426 21.5497 89.6942 21.1778 89.6202 20.7071C89.5957 20.5833 89.5957 20.4099 89.5707 20.2861C89.5707 20.2861 89.5957 18.5024 89.6202 18.5024H100.664C100.862 18.5024 101.356 18.4031 101.356 17.6353V15.6781C101.356 14.9098 100.862 14.8356 100.664 14.8356L87.9153 14.8602C87.1991 14.9098 86.5813 15.2817 86.2354 15.9007C86.112 16.0991 86.013 16.2971 85.9635 16.5201L85.9141 19.6421V19.7659C85.939 20.9302 86.0625 21.921 86.2354 22.7385C86.4579 23.7299 86.8282 24.5473 87.2981 25.1668C87.7919 25.8108 88.4342 26.2569 89.2249 26.5291C89.9911 26.8263 90.9048 26.9506 91.9919 26.9506H100.763C100.985 26.9506 101.479 26.8759 101.479 26.108V23.383C101.479 22.6147 100.985 22.5405 100.763 22.5405ZM100.788 6.51123H86.5813C86.3839 6.51123 85.9141 6.61046 85.9141 7.40336V9.33548C85.9141 10.1038 86.3839 10.178 86.5813 10.178L100.788 10.2026C100.985 10.2026 101.479 10.1038 101.479 9.33548V7.3783C101.479 6.61046 100.985 6.51123 100.788 6.51123Z" fill="#265AE8"/>
</g>
</g>
</g>
<g id="Group_16">
<g id="Group_17">
<g id="Group_18">
<path id="Vector_6" d="M120.824 11.1688C120.577 10.1283 120.157 9.26124 119.638 8.56758C119.094 7.89849 118.378 7.37825 117.538 7.05647C116.698 6.73421 115.709 6.56079 114.548 6.56079H105.926V6.58585C105.209 6.63497 104.592 7.03142 104.221 7.62633C104.122 7.82431 104.024 8.04734 103.974 8.24532L103.949 25.1667C103.999 25.4389 104.098 25.7115 104.221 25.9346C104.616 26.6037 105.333 26.9996 106.099 26.9996H114.548C115.709 26.9996 116.723 26.8262 117.538 26.5044C118.378 26.1822 119.094 25.6619 119.638 24.9683C120.157 24.2992 120.577 23.4321 120.824 22.3916C121.071 21.3511 121.195 20.1127 121.195 18.7254V14.8356C121.195 13.4482 121.071 12.2093 120.824 11.1688ZM107.581 23.1845V10.3759C107.581 10.2772 107.606 10.2275 107.631 10.2275H114.474C115.043 10.2275 115.537 10.3017 115.932 10.4506C116.327 10.5989 116.624 10.7974 116.846 11.1192C117.093 11.4415 117.266 11.8625 117.365 12.3827C117.464 12.9526 117.538 13.6462 117.538 14.4637V19.0967C117.538 19.9142 117.464 20.6079 117.365 21.1532C117.266 21.698 117.093 22.1195 116.846 22.4412C116.624 22.7384 116.327 22.9615 115.932 23.1103C115.537 23.2587 115.043 23.3083 114.474 23.3083H107.606C107.606 23.3083 107.581 23.2837 107.581 23.1845Z" fill="#265AE8"/>
</g>
</g>
</g>
</g>
</svg>
