<svg width="19" height="22" viewBox="0 0 19 22" fill="none" xmlns="http://www.w3.org/2000/svg">
<path d="M18.2607 4.47827L14.1698 0.2475C14.0937 0.168948 14.0035 0.106659 13.9042 0.0641925C13.8048 0.0217257 13.6984 -8.71419e-05 13.5909 2.61629e-07H5.40909C4.9751 2.61629e-07 4.55889 0.178296 4.25201 0.495666C3.94513 0.813035 3.77273 1.24348 3.77273 1.69231V3.38462H2.13636C1.70237 3.38462 1.28616 3.56291 0.97928 3.88028C0.672402 4.19765 0.5 4.6281 0.5 5.07692V20.3077C0.5 20.7565 0.672402 21.187 0.97928 21.5043C1.28616 21.8217 1.70237 22 2.13636 22H13.5909C14.0249 22 14.4411 21.8217 14.748 21.5043C15.0549 21.187 15.2273 20.7565 15.2273 20.3077V18.6154H16.8636C17.2976 18.6154 17.7138 18.4371 18.0207 18.1197C18.3276 17.8023 18.5 17.3719 18.5 16.9231V5.07692C18.5001 4.96577 18.479 4.85569 18.4379 4.75297C18.3969 4.65025 18.3366 4.55691 18.2607 4.47827ZM13.5909 20.3077H2.13636V5.07692H9.97966L13.5909 8.81163V17.7862V20.3077ZM16.8636 16.9231H15.2273V8.46154C15.2274 8.35039 15.2063 8.24031 15.1652 8.13759C15.1241 8.03487 15.0639 7.94152 14.988 7.86288L10.897 3.63212C10.821 3.55356 10.7307 3.49127 10.6314 3.44881C10.5321 3.40634 10.4257 3.38453 10.3182 3.38462H5.40909V1.69231H13.2524L16.8636 5.42702V16.9231ZM11.1364 13.5385C11.1364 13.7629 11.0502 13.9781 10.8967 14.1368C10.7433 14.2955 10.5352 14.3846 10.3182 14.3846H5.40909C5.1921 14.3846 4.98399 14.2955 4.83055 14.1368C4.67711 13.9781 4.59091 13.7629 4.59091 13.5385C4.59091 13.314 4.67711 13.0988 4.83055 12.9401C4.98399 12.7815 5.1921 12.6923 5.40909 12.6923H10.3182C10.5352 12.6923 10.7433 12.7815 10.8967 12.9401C11.0502 13.0988 11.1364 13.314 11.1364 13.5385ZM11.1364 16.9231C11.1364 17.1475 11.0502 17.3627 10.8967 17.5214C10.7433 17.6801 10.5352 17.7692 10.3182 17.7692H5.40909C5.1921 17.7692 4.98399 17.6801 4.83055 17.5214C4.67711 17.3627 4.59091 17.1475 4.59091 16.9231C4.59091 16.6987 4.67711 16.4834 4.83055 16.3248C4.98399 16.1661 5.1921 16.0769 5.40909 16.0769H10.3182C10.5352 16.0769 10.7433 16.1661 10.8967 16.3248C11.0502 16.4834 11.1364 16.6987 11.1364 16.9231Z" fill="black"/>
</svg>
