<svg width="230" height="69" viewBox="0 0 230 69" fill="none" xmlns="http://www.w3.org/2000/svg">
<path d="M221.481 68.9606H8.51852C3.74815 68.9606 0 65.2125 0 60.4421V9.33102C0 4.56065 3.74815 0.8125 8.51852 0.8125H221.481C226.252 0.8125 230 4.56065 230 9.33102V60.4421C230 65.2125 226.252 68.9606 221.481 68.9606Z" fill="black"/>
<path d="M221.481 2.17546C225.4 2.17546 228.637 5.4125 228.637 9.33102V60.4421C228.637 64.3606 225.4 67.5977 221.481 67.5977H8.51852C4.6 67.5977 1.36296 64.3606 1.36296 60.4421V9.33102C1.36296 5.4125 4.6 2.17546 8.51852 2.17546H221.481ZM221.481 0.8125H8.51852C3.74815 0.8125 0 4.73102 0 9.33102V60.4421C0 65.2125 3.74815 68.9606 8.51852 68.9606H221.481C226.252 68.9606 230 65.2125 230 60.4421V9.33102C230 4.73102 226.252 0.8125 221.481 0.8125Z" fill="#A6A6A6"/>
<path d="M80.7574 18.1901C80.7574 19.5531 80.4166 20.7456 79.5648 21.5975C78.5426 22.6197 77.35 23.1308 75.8166 23.1308C74.2833 23.1308 73.0907 22.6197 72.0685 21.5975C71.0463 20.5753 70.5352 19.3827 70.5352 17.8494C70.5352 16.316 71.0463 15.1234 72.0685 14.1012C73.0907 13.079 74.2833 12.5679 75.8166 12.5679C76.4981 12.5679 77.1796 12.7382 77.8611 13.079C78.5426 13.4197 79.0537 13.7605 79.3944 14.2716L78.5426 15.1234C77.8611 14.2716 77.0092 13.9308 75.8166 13.9308C74.7944 13.9308 73.7722 14.2716 73.0907 15.1234C72.2389 15.8049 71.8981 16.8271 71.8981 18.0197C71.8981 19.2123 72.2389 20.2345 73.0907 20.916C73.9426 21.5975 74.7944 22.1086 75.8166 22.1086C77.0092 22.1086 77.8611 21.7679 78.7129 20.916C79.224 20.4049 79.5648 19.7234 79.5648 18.8716H75.8166V17.5086H80.7574V18.1901ZM88.5944 13.9308H83.9944V17.1679H88.2537V18.3605H83.9944V21.5975H88.5944V22.9605H82.6315V12.7382H88.5944V13.9308ZM94.2166 22.9605H92.8537V13.9308H89.9574V12.7382H97.1129V13.9308H94.2166V22.9605ZM102.054 22.9605V12.7382H103.417V22.9605H102.054ZM109.209 22.9605H107.846V13.9308H104.95V12.7382H111.935V13.9308H109.039V22.9605H109.209ZM125.394 21.5975C124.372 22.6197 123.18 23.1308 121.646 23.1308C120.113 23.1308 118.92 22.6197 117.898 21.5975C116.876 20.5753 116.365 19.3827 116.365 17.8494C116.365 16.316 116.876 15.1234 117.898 14.1012C118.92 13.079 120.113 12.5679 121.646 12.5679C123.18 12.5679 124.372 13.079 125.394 14.1012C126.417 15.1234 126.928 16.316 126.928 17.8494C126.928 19.3827 126.417 20.5753 125.394 21.5975ZM118.92 20.7456C119.602 21.4271 120.624 21.9382 121.646 21.9382C122.668 21.9382 123.691 21.5975 124.372 20.7456C125.054 20.0642 125.565 19.0419 125.565 17.8494C125.565 16.6568 125.224 15.6345 124.372 14.9531C123.691 14.2716 122.668 13.7605 121.646 13.7605C120.624 13.7605 119.602 14.1012 118.92 14.9531C118.239 15.6345 117.728 16.6568 117.728 17.8494C117.728 19.0419 118.068 20.0642 118.92 20.7456ZM128.802 22.9605V12.7382H130.335L135.276 20.7456V12.7382H136.639V22.9605H135.276L129.994 14.6123V22.9605H128.802Z" fill="white" stroke="white" stroke-width="1.18519" stroke-miterlimit="10"/>
<path d="M116.021 37.9532C111.933 37.9532 108.696 41.0199 108.696 45.2791C108.696 49.368 111.933 52.6051 116.021 52.6051C120.11 52.6051 123.347 49.5384 123.347 45.2791C123.347 40.8495 120.11 37.9532 116.021 37.9532ZM116.021 49.5384C113.807 49.5384 111.933 47.6643 111.933 45.1088C111.933 42.5532 113.807 40.6791 116.021 40.6791C118.236 40.6791 120.11 42.3828 120.11 45.1088C120.11 47.6643 118.236 49.5384 116.021 49.5384ZM100.177 37.9532C96.0882 37.9532 92.8511 41.0199 92.8511 45.2791C92.8511 49.368 96.0882 52.6051 100.177 52.6051C104.266 52.6051 107.503 49.5384 107.503 45.2791C107.503 40.8495 104.266 37.9532 100.177 37.9532ZM100.177 49.5384C97.9622 49.5384 96.0882 47.6643 96.0882 45.1088C96.0882 42.5532 97.9622 40.6791 100.177 40.6791C102.392 40.6791 104.266 42.3828 104.266 45.1088C104.266 47.6643 102.392 49.5384 100.177 49.5384ZM81.2659 40.168V43.2347H88.5919C88.4215 44.9384 87.74 46.3014 86.8882 47.1532C85.8659 48.1754 84.1622 49.368 81.2659 49.368C76.6659 49.368 73.2585 45.7902 73.2585 41.1902C73.2585 36.5902 76.8363 33.0125 81.2659 33.0125C83.6511 33.0125 85.5252 34.0347 86.8882 35.2273L89.103 33.0125C87.2289 31.3088 84.8437 29.9458 81.4363 29.9458C75.303 29.9458 70.0215 35.0569 70.0215 41.1902C70.0215 47.3236 75.303 52.4347 81.4363 52.4347C84.8437 52.4347 87.2289 51.4125 89.2733 49.1976C91.3178 47.1532 91.9993 44.2569 91.9993 42.0421C91.9993 41.3606 91.9993 40.6791 91.8289 40.168H81.2659ZM158.614 42.5532C157.933 40.8495 156.229 37.9532 152.481 37.9532C148.733 37.9532 145.666 40.8495 145.666 45.2791C145.666 49.368 148.733 52.6051 152.821 52.6051C156.059 52.6051 158.103 50.5606 158.784 49.368L156.399 47.6643C155.547 48.8569 154.525 49.7088 152.821 49.7088C151.118 49.7088 150.096 49.0273 149.244 47.4939L158.955 43.4051L158.614 42.5532ZM148.733 44.9384C148.733 42.2125 150.947 40.6791 152.481 40.6791C153.673 40.6791 154.866 41.3606 155.207 42.2125L148.733 44.9384ZM140.725 51.9236H143.962V30.6273H140.725V51.9236ZM135.614 39.4865C134.762 38.6347 133.399 37.7828 131.696 37.7828C128.118 37.7828 124.71 41.0199 124.71 45.1088C124.71 49.1977 127.947 52.2643 131.696 52.2643C133.399 52.2643 134.762 51.4125 135.444 50.5606H135.614V51.5828C135.614 54.3088 134.081 55.8421 131.696 55.8421C129.821 55.8421 128.459 54.4791 128.118 53.2865L125.392 54.4791C126.244 56.3532 128.288 58.7384 131.866 58.7384C135.614 58.7384 138.681 56.5236 138.681 51.2421V38.2939H135.614V39.4865ZM131.866 49.5384C129.651 49.5384 127.777 47.6643 127.777 45.1088C127.777 42.5532 129.651 40.6791 131.866 40.6791C134.081 40.6791 135.784 42.5532 135.784 45.1088C135.784 47.6643 134.081 49.5384 131.866 49.5384ZM173.436 30.6273H165.77V51.9236H169.007V43.9162H173.436C177.014 43.9162 180.421 41.3606 180.421 37.2717C180.421 33.1828 177.014 30.6273 173.436 30.6273ZM173.607 40.8495H169.007V33.5236H173.607C175.992 33.5236 177.355 35.568 177.355 37.1014C177.184 38.9754 175.821 40.8495 173.607 40.8495ZM193.199 37.7828C190.814 37.7828 188.429 38.8051 187.577 41.0199L190.473 42.2125C191.155 41.0199 192.177 40.6791 193.37 40.6791C195.073 40.6791 196.607 41.7014 196.777 43.4051V43.5754C196.266 43.2347 194.903 42.7236 193.54 42.7236C190.473 42.7236 187.407 44.4273 187.407 47.4939C187.407 50.3902 189.962 52.2643 192.688 52.2643C194.903 52.2643 195.925 51.2421 196.777 50.2199H196.947V51.9236H200.014V43.7458C199.673 39.9977 196.777 37.7828 193.199 37.7828ZM192.859 49.5384C191.836 49.5384 190.303 49.0273 190.303 47.6643C190.303 45.9606 192.177 45.4495 193.71 45.4495C195.073 45.4495 195.755 45.7902 196.607 46.131C196.266 48.1754 194.562 49.5384 192.859 49.5384ZM210.747 38.2939L207.17 47.4939H206.999L203.251 38.2939H199.844L205.466 51.2421L202.229 58.3976H205.466L214.155 38.2939H210.747ZM182.125 51.9236H185.362V30.6273H182.125V51.9236Z" fill="white"/>
<path d="M17.7186 13.5903C17.2075 14.1014 17.0371 14.9533 17.0371 15.9755V53.6274C17.0371 54.6496 17.3779 55.5014 17.889 56.0126L18.0593 56.1829L39.1853 35.057V34.7163L17.7186 13.5903Z" fill="url(#paint0_linear_737_10115)"/>
<path d="M45.9989 42.2119L39.0137 35.2268V34.7157L45.9989 27.7305L46.1692 27.9008L54.5174 32.6712C56.9026 34.0342 56.9026 36.249 54.5174 37.6119L45.9989 42.2119Z" fill="url(#paint1_linear_737_10115)"/>
<path d="M46.1706 42.0418L39.015 34.8862L17.7188 56.1825C18.5706 57.0344 19.7632 57.0344 21.2965 56.3529L46.1706 42.0418Z" fill="url(#paint2_linear_737_10115)"/>
<path d="M46.1706 27.7301L21.2965 13.5893C19.7632 12.7375 18.5706 12.9079 17.7188 13.7597L39.015 34.8856L46.1706 27.7301Z" fill="url(#paint3_linear_737_10115)"/>
<path opacity="0.2" d="M46.0002 41.8711L21.2965 55.8415C19.9336 56.6933 18.741 56.5229 17.8891 55.8415L17.7188 56.0118L17.8891 56.1822C18.741 56.8637 19.9336 57.0341 21.2965 56.1822L46.0002 41.8711Z" fill="black"/>
<path opacity="0.12" d="M17.7186 55.8418C17.2075 55.3307 17.0371 54.4788 17.0371 53.4566V53.627C17.0371 54.6492 17.3779 55.501 17.889 56.0122V55.8418H17.7186ZM54.5186 37.101L46.0001 41.8714L46.1704 42.0418L54.5186 37.2714C55.7112 36.5899 56.2223 35.7381 56.2223 34.8862C56.2223 35.7381 55.5408 36.4196 54.5186 37.101Z" fill="black"/>
<path opacity="0.25" d="M21.2964 13.7602L54.5186 32.6713C55.5408 33.3528 56.2223 34.0343 56.2223 34.8861C56.2223 34.0343 55.7112 33.1824 54.5186 32.501L21.2964 13.5899C18.9112 12.2269 17.0371 13.2491 17.0371 15.975V16.1454C17.0371 13.5899 18.9112 12.3973 21.2964 13.7602Z" fill="white"/>
<defs>
<linearGradient id="paint0_linear_737_10115" x1="37.1408" y1="15.6518" x2="8.54755" y2="44.2434" gradientUnits="userSpaceOnUse">
<stop stop-color="#00A0FF"/>
<stop offset="0.007" stop-color="#00A1FF"/>
<stop offset="0.26" stop-color="#00BEFF"/>
<stop offset="0.512" stop-color="#00D2FF"/>
<stop offset="0.76" stop-color="#00DFFF"/>
<stop offset="1" stop-color="#00E3FF"/>
</linearGradient>
<linearGradient id="paint1_linear_737_10115" x1="57.642" y1="34.8877" x2="16.4174" y2="34.8877" gradientUnits="userSpaceOnUse">
<stop stop-color="#FFE000"/>
<stop offset="0.409" stop-color="#FFBD00"/>
<stop offset="0.775" stop-color="#FFA500"/>
<stop offset="1" stop-color="#FF9C00"/>
</linearGradient>
<linearGradient id="paint2_linear_737_10115" x1="42.2981" y1="38.7979" x2="3.5252" y2="77.5708" gradientUnits="userSpaceOnUse">
<stop stop-color="#FF3A44"/>
<stop offset="1" stop-color="#C31162"/>
</linearGradient>
<linearGradient id="paint3_linear_737_10115" x1="12.4322" y1="1.11142" x2="29.7469" y2="18.4262" gradientUnits="userSpaceOnUse">
<stop stop-color="#32A071"/>
<stop offset="0.069" stop-color="#2DA771"/>
<stop offset="0.476" stop-color="#15CF74"/>
<stop offset="0.801" stop-color="#06E775"/>
<stop offset="1" stop-color="#00F076"/>
</linearGradient>
</defs>
</svg>
