<svg width="126" height="38" viewBox="0 0 126 38" fill="none" xmlns="http://www.w3.org/2000/svg">
<path d="M121.333 37.3333H4.66667C2.05333 37.3333 0 35.28 0 32.6667V4.66667C0 2.05333 2.05333 0 4.66667 0H121.333C123.947 0 126 2.05333 126 4.66667V32.6667C126 35.28 123.947 37.3333 121.333 37.3333Z" fill="black"/>
<path d="M121.333 0.746667C123.48 0.746667 125.253 2.52 125.253 4.66667V32.6667C125.253 34.8133 123.48 36.5867 121.333 36.5867H4.66667C2.52 36.5867 0.746667 34.8133 0.746667 32.6667V4.66667C0.746667 2.52 2.52 0.746667 4.66667 0.746667H121.333ZM121.333 0H4.66667C2.05333 0 0 2.14667 0 4.66667V32.6667C0 35.28 2.05333 37.3333 4.66667 37.3333H121.333C123.947 37.3333 126 35.28 126 32.6667V4.66667C126 2.14667 123.947 0 121.333 0Z" fill="#A6A6A6"/>
<path d="M44.2406 9.51945C44.2406 10.2661 44.054 10.9195 43.5873 11.3861C43.0273 11.9461 42.374 12.2261 41.534 12.2261C40.694 12.2261 40.0406 11.9461 39.4806 11.3861C38.9206 10.8261 38.6406 10.1728 38.6406 9.33279C38.6406 8.49279 38.9206 7.83945 39.4806 7.27945C40.0406 6.71945 40.694 6.43945 41.534 6.43945C41.9073 6.43945 42.2806 6.53279 42.654 6.71945C43.0273 6.90612 43.3073 7.09279 43.494 7.37279L43.0273 7.83945C42.654 7.37279 42.1873 7.18612 41.534 7.18612C40.974 7.18612 40.414 7.37279 40.0406 7.83945C39.574 8.21279 39.3873 8.77279 39.3873 9.42612C39.3873 10.0795 39.574 10.6395 40.0406 11.0128C40.5073 11.3861 40.974 11.6661 41.534 11.6661C42.1873 11.6661 42.654 11.4795 43.1206 11.0128C43.4006 10.7328 43.5873 10.3595 43.5873 9.89279H41.534V9.14612H44.2406V9.51945ZM48.534 7.18612H46.014V8.95945H48.3473V9.61279H46.014V11.3861H48.534V12.1328H45.2673V6.53279H48.534V7.18612ZM51.614 12.1328H50.8673V7.18612H49.2806V6.53279H53.2006V7.18612H51.614V12.1328ZM55.9073 12.1328V6.53279H56.654V12.1328H55.9073ZM59.8273 12.1328H59.0806V7.18612H57.494V6.53279H61.3206V7.18612H59.734V12.1328H59.8273ZM68.694 11.3861C68.134 11.9461 67.4806 12.2261 66.6406 12.2261C65.8006 12.2261 65.1473 11.9461 64.5873 11.3861C64.0273 10.8261 63.7473 10.1728 63.7473 9.33279C63.7473 8.49279 64.0273 7.83945 64.5873 7.27945C65.1473 6.71945 65.8006 6.43945 66.6406 6.43945C67.4806 6.43945 68.134 6.71945 68.694 7.27945C69.254 7.83945 69.534 8.49279 69.534 9.33279C69.534 10.1728 69.254 10.8261 68.694 11.3861ZM65.1473 10.9195C65.5206 11.2928 66.0806 11.5728 66.6406 11.5728C67.2006 11.5728 67.7606 11.3861 68.134 10.9195C68.5073 10.5461 68.7873 9.98612 68.7873 9.33279C68.7873 8.67945 68.6006 8.11945 68.134 7.74612C67.7606 7.37279 67.2006 7.09279 66.6406 7.09279C66.0806 7.09279 65.5206 7.27945 65.1473 7.74612C64.774 8.11945 64.494 8.67945 64.494 9.33279C64.494 9.98612 64.6806 10.5461 65.1473 10.9195ZM70.5606 12.1328V6.53279H71.4006L74.1073 10.9195V6.53279H74.854V12.1328H74.1073L71.214 7.55945V12.1328H70.5606Z" fill="white" stroke="white" stroke-width="1.18519" stroke-miterlimit="10"/>
<path d="M63.5594 20.3466C61.3194 20.3466 59.546 22.0266 59.546 24.36C59.546 26.6 61.3194 28.3733 63.5594 28.3733C65.7994 28.3733 67.5727 26.6933 67.5727 24.36C67.5727 21.9333 65.7994 20.3466 63.5594 20.3466ZM63.5594 26.6933C62.346 26.6933 61.3194 25.6666 61.3194 24.2666C61.3194 22.8666 62.346 21.84 63.5594 21.84C64.7727 21.84 65.7994 22.7733 65.7994 24.2666C65.7994 25.6666 64.7727 26.6933 63.5594 26.6933ZM54.8794 20.3466C52.6394 20.3466 50.866 22.0266 50.866 24.36C50.866 26.6 52.6394 28.3733 54.8794 28.3733C57.1194 28.3733 58.8927 26.6933 58.8927 24.36C58.8927 21.9333 57.1194 20.3466 54.8794 20.3466ZM54.8794 26.6933C53.666 26.6933 52.6394 25.6666 52.6394 24.2666C52.6394 22.8666 53.666 21.84 54.8794 21.84C56.0927 21.84 57.1194 22.7733 57.1194 24.2666C57.1194 25.6666 56.0927 26.6933 54.8794 26.6933ZM44.5194 21.56V23.24H48.5327C48.4394 24.1733 48.066 24.92 47.5994 25.3866C47.0394 25.9466 46.106 26.6 44.5194 26.6C41.9994 26.6 40.1327 24.64 40.1327 22.12C40.1327 19.6 42.0927 17.64 44.5194 17.64C45.826 17.64 46.8527 18.2 47.5994 18.8533L48.8127 17.64C47.786 16.7066 46.4794 15.96 44.6127 15.96C41.2527 15.96 38.3594 18.76 38.3594 22.12C38.3594 25.48 41.2527 28.28 44.6127 28.28C46.4794 28.28 47.786 27.72 48.906 26.5066C50.026 25.3866 50.3994 23.8 50.3994 22.5866C50.3994 22.2133 50.3994 21.84 50.306 21.56H44.5194ZM86.8927 22.8666C86.5194 21.9333 85.586 20.3466 83.5327 20.3466C81.4794 20.3466 79.7994 21.9333 79.7994 24.36C79.7994 26.6 81.4794 28.3733 83.7194 28.3733C85.4927 28.3733 86.6127 27.2533 86.986 26.6L85.6794 25.6666C85.2127 26.32 84.6527 26.7866 83.7194 26.7866C82.786 26.7866 82.226 26.4133 81.7594 25.5733L87.0794 23.3333L86.8927 22.8666ZM81.4794 24.1733C81.4794 22.68 82.6927 21.84 83.5327 21.84C84.186 21.84 84.8394 22.2133 85.026 22.68L81.4794 24.1733ZM77.0927 28H78.866V16.3333H77.0927V28ZM74.2927 21.1866C73.826 20.72 73.0794 20.2533 72.146 20.2533C70.186 20.2533 68.3194 22.0266 68.3194 24.2666C68.3194 26.5066 70.0927 28.1866 72.146 28.1866C73.0794 28.1866 73.826 27.72 74.1994 27.2533H74.2927V27.8133C74.2927 29.3066 73.4527 30.1466 72.146 30.1466C71.1194 30.1466 70.3727 29.4 70.186 28.7466L68.6927 29.4C69.1594 30.4266 70.2794 31.7333 72.2394 31.7333C74.2927 31.7333 75.9727 30.52 75.9727 27.6266V20.5333H74.2927V21.1866ZM72.2394 26.6933C71.026 26.6933 69.9994 25.6666 69.9994 24.2666C69.9994 22.8666 71.026 21.84 72.2394 21.84C73.4527 21.84 74.386 22.8666 74.386 24.2666C74.386 25.6666 73.4527 26.6933 72.2394 26.6933ZM95.0127 16.3333H90.8127V28H92.586V23.6133H95.0127C96.9727 23.6133 98.8394 22.2133 98.8394 19.9733C98.8394 17.7333 96.9727 16.3333 95.0127 16.3333ZM95.106 21.9333H92.586V17.92H95.106C96.4127 17.92 97.1594 19.04 97.1594 19.88C97.066 20.9066 96.3194 21.9333 95.106 21.9333ZM105.839 20.2533C104.533 20.2533 103.226 20.8133 102.759 22.0266L104.346 22.68C104.719 22.0266 105.279 21.84 105.933 21.84C106.866 21.84 107.706 22.4 107.799 23.3333V23.4266C107.519 23.24 106.773 22.96 106.026 22.96C104.346 22.96 102.666 23.8933 102.666 25.5733C102.666 27.16 104.066 28.1866 105.559 28.1866C106.773 28.1866 107.333 27.6266 107.799 27.0666H107.893V28H109.573V23.52C109.386 21.4666 107.799 20.2533 105.839 20.2533ZM105.653 26.6933C105.093 26.6933 104.253 26.4133 104.253 25.6666C104.253 24.7333 105.279 24.4533 106.119 24.4533C106.866 24.4533 107.239 24.64 107.706 24.8266C107.519 25.9466 106.586 26.6933 105.653 26.6933ZM115.453 20.5333L113.493 25.5733H113.399L111.346 20.5333H109.479L112.559 27.6266L110.786 31.5466H112.559L117.319 20.5333H115.453ZM99.7727 28H101.546V16.3333H99.7727V28Z" fill="white"/>
<path d="M9.70732 7C9.42732 7.28 9.33398 7.74667 9.33398 8.30667V28.9333C9.33398 29.4933 9.52065 29.96 9.80065 30.24L9.89398 30.3333L21.4673 18.76V18.5733L9.70732 7Z" fill="url(#paint0_linear_811_10078)"/>
<path d="M25.1997 22.6804L21.373 18.8537V18.5737L25.1997 14.7471L25.293 14.8404L29.8664 17.4537C31.173 18.2004 31.173 19.4137 29.8664 20.1604L25.1997 22.6804Z" fill="url(#paint1_linear_811_10078)"/>
<path d="M25.2937 22.587L21.3737 18.667L9.70703 30.3337C10.1737 30.8003 10.827 30.8003 11.667 30.427L25.2937 22.587Z" fill="url(#paint2_linear_811_10078)"/>
<path d="M25.2937 14.7468L11.667 7.00017C10.827 6.5335 10.1737 6.62684 9.70703 7.0935L21.3737 18.6668L25.2937 14.7468Z" fill="url(#paint3_linear_811_10078)"/>
<path opacity="0.2" d="M25.2004 22.4932L11.667 30.1465C10.9204 30.6132 10.267 30.5198 9.80036 30.1465L9.70703 30.2398L9.80036 30.3332C10.267 30.7065 10.9204 30.7998 11.667 30.3332L25.2004 22.4932Z" fill="black"/>
<path opacity="0.12" d="M9.70732 30.147C9.42732 29.867 9.33398 29.4003 9.33398 28.8403V28.9337C9.33398 29.4937 9.52065 29.9603 9.80065 30.2403V30.147H9.70732ZM29.8673 19.8803L25.2007 22.4937L25.294 22.587L29.8673 19.9737C30.5207 19.6003 30.8007 19.1337 30.8007 18.667C30.8007 19.1337 30.4273 19.507 29.8673 19.8803Z" fill="black"/>
<path opacity="0.25" d="M11.6673 7.09352L29.8673 17.4535C30.4273 17.8269 30.8007 18.2002 30.8007 18.6669C30.8007 18.2002 30.5207 17.7335 29.8673 17.3602L11.6673 7.00019C10.3607 6.25352 9.33398 6.81352 9.33398 8.30685V8.40019C9.33398 7.00019 10.3607 6.34685 11.6673 7.09352Z" fill="white"/>
<defs>
<linearGradient id="paint0_linear_811_10078" x1="20.3473" y1="8.12933" x2="4.68318" y2="23.7925" gradientUnits="userSpaceOnUse">
<stop stop-color="#00A0FF"/>
<stop offset="0.007" stop-color="#00A1FF"/>
<stop offset="0.26" stop-color="#00BEFF"/>
<stop offset="0.512" stop-color="#00D2FF"/>
<stop offset="0.76" stop-color="#00DFFF"/>
<stop offset="1" stop-color="#00E3FF"/>
</linearGradient>
<linearGradient id="paint1_linear_811_10078" x1="31.5781" y1="18.668" x2="8.99425" y2="18.668" gradientUnits="userSpaceOnUse">
<stop stop-color="#FFE000"/>
<stop offset="0.409" stop-color="#FFBD00"/>
<stop offset="0.775" stop-color="#FFA500"/>
<stop offset="1" stop-color="#FF9C00"/>
</linearGradient>
<linearGradient id="paint2_linear_811_10078" x1="23.1722" y1="20.8099" x2="1.93143" y2="42.0507" gradientUnits="userSpaceOnUse">
<stop stop-color="#FF3A44"/>
<stop offset="1" stop-color="#C31162"/>
</linearGradient>
<linearGradient id="paint3_linear_811_10078" x1="6.8109" y1="0.164437" x2="16.2964" y2="9.6499" gradientUnits="userSpaceOnUse">
<stop stop-color="#32A071"/>
<stop offset="0.069" stop-color="#2DA771"/>
<stop offset="0.476" stop-color="#15CF74"/>
<stop offset="0.801" stop-color="#06E775"/>
<stop offset="1" stop-color="#00F076"/>
</linearGradient>
</defs>
</svg>
