<svg width="17" height="17" viewBox="0 0 17 17" fill="none" xmlns="http://www.w3.org/2000/svg">
<path d="M12.6278 0.305664H3.68299C1.64893 0.305664 0 1.96223 0 4.00571V12.9164C0 14.9599 1.64893 16.6165 3.68299 16.6165H12.6278C14.6619 16.6165 16.3108 14.9599 16.3108 12.9164V4.00571C16.3108 1.96223 14.6619 0.305664 12.6278 0.305664Z" fill="black"/>
<path d="M10.3125 5.05371H11.4631L8.9493 7.94052L11.9066 11.8684H9.5909L7.77728 9.48634L5.70179 11.8684H4.55048L7.23921 8.78096L4.40234 5.05371H6.77665L8.41601 7.2313L10.3125 5.05371ZM9.90852 11.1765H10.5463L6.43036 5.70948H5.74607L9.90852 11.1765Z" fill="white"/>
</svg>
